<svg xmlns="http://www.w3.org/2000/svg" viewBox="0 0 24 24" fill="currentColor">
  <path d="M12.01.054C5.428.054.054 5.428.054 12.01c0 6.582 5.374 11.956 11.956 11.956 6.582 0 11.956-5.374 11.956-11.956C23.966 5.428 18.592.054 12.01.054zm0 2.397c5.279 0 9.559 4.28 9.559 9.559 0 5.279-4.28 9.559-9.559 9.559-5.279 0-9.559-4.28-9.559-9.559 0-5.279 4.28-9.559 9.559-9.559zm4.155 3.019l-6.31 1.284c-.173.034-.293.196-.293.37v6.07c0 0-.759-.154-1.586.123-.826.277-1.327.89-1.327 1.614 0 .89.759 1.462 1.62 1.462.862 0 1.621-.583 1.621-1.462V9.901l4.69-.981v4.565c0 0-.759-.154-1.586.123-.826.277-1.327.89-1.327 1.614 0 .89.759 1.462 1.62 1.462.862 0 1.621-.583 1.621-1.462V5.84c0-.174-.12-.336-.293-.37z"/>
</svg>