<svg xmlns="http://www.w3.org/2000/svg" viewBox="0 0 24 24" fill="currentColor">
  <path d="M11.991 0C5.371 0 0 5.371 0 11.991c0 6.62 5.371 11.991 11.991 11.991 6.62 0 11.991-5.371 11.991-11.991C23.982 5.371 18.611 0 11.991 0zm3.402 16.434a.287.287 0 0 1-.407.064l-2.756-1.923-2.756 1.923a.287.287 0 0 1-.407-.064.287.287 0 0 1-.064-.407l1.923-2.756-1.923-2.756a.287.287 0 0 1 .064-.407.287.287 0 0 1 .407.064l2.756 1.923 2.756-1.923a.287.287 0 0 1 .407.064.287.287 0 0 1-.064.407l-1.923 2.756 1.923 2.756a.287.287 0 0 1 .064.407z"/>
</svg>