<svg xmlns="http://www.w3.org/2000/svg" viewBox="0 0 24 24" fill="currentColor">
  <path d="M7.076 21.337H2.47a.641.641 0 0 1-.633-.74L4.944.901C5.026.382 5.474 0 5.998 0h7.46c2.57 0 4.578.543 5.69 1.81 1.01 1.15 1.304 2.42 1.012 4.287-.023.143-.047.288-.077.437-.983 5.05-4.349 6.797-8.647 6.797h-2.19c-.524 0-.968.382-1.05.9l-1.12 7.106zm14.146-14.42c-.003.02-.006.039-.01.058-.044.225-.09.452-.143.683-.722 3.72-3.2 5.772-7.899 5.772h-2.19c-.088 0-.158.064-.171.15l-1.125 7.13c-.013.086-.084.15-.17.15H7.076a.167.167 0 0 1-.165-.194l1.12-7.105c.085-.542.54-.934 1.086-.934h2.19c4.299 0 7.665-1.747 8.647-6.797.03-.149.054-.294.077-.437.208-1.34.147-2.433-.29-3.277a3.823 3.823 0 0 0-.409-.567c-.455-.524-1.046-.898-1.747-1.153.674.222 1.239.538 1.697.962.738.686 1.241 1.607 1.489 2.733.086.39.131.794.135 1.209v.017c.004.396-.03.803-.099 1.22l-.066.358z"/>
</svg>